<svg xmlns="http://www.w3.org/2000/svg" fill="none" viewBox="-0.5 -0.5 16 16" id="Chat-Bubble-Alt--Streamline-Outlined-Expansion-Set.svg" height="16" width="16"><desc>Chat Bubble Alt Streamline Icon: https://streamlinehq.com</desc><g id="chat-bubble-alt"><path id="Union" fill="#ffffff" d="M0.15 14.850000000000001L1.515 10.16C1.2933125 9.6816875 1.1270624999999999 9.1916875 1.0162499999999999 8.69C0.9054375000000001 8.1883125 0.8500000000000001 7.675 0.8500000000000001 7.1499999999999995C0.8500000000000001 6.181687500000001 1.03375 5.2716875 1.40125 4.42C1.76875 3.5683124999999998 2.2675 2.8275 2.8975 2.1975C3.5275 1.5675 4.2683125 1.06875 5.12 0.70125C5.9716875 0.33375 6.8816875 0.15 7.8500000000000005 0.15C8.8183125 0.15 9.728312500000001 0.33375 10.58 0.70125C11.4316875 1.06875 12.1725 1.5675 12.802500000000002 2.1975C13.432500000000001 2.8275 13.931249999999999 3.5683124999999998 14.29875 4.42C14.666250000000002 5.2716875 14.850000000000001 6.181687500000001 14.850000000000001 7.1499999999999995C14.850000000000001 8.1183125 14.666250000000002 9.0283125 14.29875 9.879999999999999C13.931249999999999 10.7316875 13.432500000000001 11.4725 12.802500000000002 12.102500000000001C12.1725 12.7325 11.4316875 13.231250000000001 10.58 13.598749999999999C9.728312500000001 13.96625 8.8183125 14.15 7.8500000000000005 14.15C7.325 14.15 6.8116875 14.0945625 6.3100000000000005 13.983749999999999C5.8083125 13.872937499999999 5.318312499999999 13.706687500000001 4.84 13.485L0.15 14.850000000000001ZM2.215 12.785L4.455 12.12C4.6183125 12.0733125 4.7845625 12.0558125 4.95375 12.067499999999999C5.1229375 12.0791875 5.2833125 12.12 5.435 12.190000000000001C5.8083125 12.376687500000001 6.1991875 12.516687500000002 6.6075 12.61C7.015812500000001 12.7033125 7.43 12.75 7.8500000000000005 12.75C9.4133125 12.75 10.7375 12.2075 11.8225 11.122499999999999C12.9075 10.0375 13.45 8.7133125 13.45 7.1499999999999995C13.45 5.5866875 12.9075 4.2625 11.8225 3.1774999999999998C10.7375 2.0925 9.4133125 1.55 7.8500000000000005 1.55C6.2866875 1.55 4.9625 2.0925 3.8775 3.1774999999999998C2.7925 4.2625 2.25 5.5866875 2.25 7.1499999999999995C2.25 7.57 2.2966875 7.984187499999999 2.3899999999999997 8.3925C2.4833125000000003 8.800812500000001 2.6233125 9.1916875 2.8100000000000005 9.565C2.8916874999999997 9.716687499999999 2.9354375 9.877062500000001 2.94125 10.04625C2.9470625 10.2154375 2.9266875 10.381687500000002 2.88 10.545L2.215 12.785Z" stroke-width="1"></path></g></svg>